<svg id="Camada_1" data-name="Camada 1" xmlns="http://www.w3.org/2000/svg" viewBox="0 0 392.54 391.72"><path id="Path_2074" data-name="Path 2074" d="M391.72,170a16.52,16.52,0,0,0-14.85-11.17c-5.32-.48-10.65-1.12-16-1.6l-3.35-.32c-4.63-.48-5.75-1.44-7.19-5.75l-.32-1.12c-1.92-5.59-3.67-11.49-6.07-16.92-1.6-3.67-3.52-7.34-5.43-11-.8-1.44-1.6-3-2.4-4.47a4.52,4.52,0,0,1,.8-5.76c.8-.79,1.44-1.75,2.24-2.66l.32-.48c1.11-1.33,2.07-2.66,3.19-4.15,1.92-2.4,3.83-5,5.91-7.34a20.29,20.29,0,0,0,6.07-11.49,18.08,18.08,0,0,0-1.75-9.89A22,22,0,0,0,347.79,70l-1.59-1.6-8.94-8.93-14-14.05a19.44,19.44,0,0,0-12.77-7.17,14.32,14.32,0,0,0-9.89,2.39c-5.92,4.64-12,9.41-17.73,14l-2.07,1.6a4.79,4.79,0,0,1-5.59.47c-1.34-.63-2.67-1.43-4-2.07-3.67-1.92-7.65-4-11.49-5.59-5.11-2.08-10.37-3.84-15.48-5.6-1.44-.48-3-1-4.48-1.43a4.46,4.46,0,0,1-3.35-4.32c-.16-1.33-.32-2.55-.48-4l-.16-1.33c-.16-1.92-.48-3.68-.64-5.59-.48-4.16-1-8.3-1.44-12.61a15.59,15.59,0,0,0-4.31-9.1A16.16,16.16,0,0,0,217.05,0H175.63a15.31,15.31,0,0,0-2.87.16A16.09,16.09,0,0,0,160,12.3c-.48,2.24-.64,4.47-1,7-.16,1.33-.16,2.39-.32,3.67v.48c-.48,4.79-1.12,9.73-1.76,14.53a4.78,4.78,0,0,1-2.55,3.51c-.8.32-1.44.48-2.08.8-.32,0-.48.16-.8.16-1.76.64-3.67,1.33-5.59,1.92-4.16,1.43-8.62,2.87-12.77,4.47-3.52,1.44-7,3.2-10.37,5-1.12.48-2.08,1.12-3.2,1.6-4.15,2.08-5.59,2.08-9.09-.8l-.16-.16c-4-3.35-8.61-6.87-14.21-11.33-.32-.32-.79-.64-1.11-1a18.8,18.8,0,0,0-3.84-2.66,16.46,16.46,0,0,0-18.84,3.2L53.14,61.85l-3.35,3.36c-2.66,2.66-5.43,5.43-8,8.13a16,16,0,0,0-.48,20.12c5.33,6.55,9.89,12.45,14.53,18a5,5,0,0,1,.48,6.23A115.32,115.32,0,0,0,47,137.21q-2.4,6.38-4.32,12.93l-1,2.87a4.56,4.56,0,0,1-4.31,3.36,30.75,30.75,0,0,1-3.84.32l-1.59.16-4.64.48c-3.51.48-7.17.8-10.85,1.12a17.31,17.31,0,0,0-11.17,4.31A16.17,16.17,0,0,0,0,175.05V216.3A16,16,0,0,0,7,230a15.73,15.73,0,0,0,6.4,2.66l5.32.48c1.33.16,2.56.16,3.83.32,5.76.64,10.54,1.12,15,1.76a5,5,0,0,1,4,2.88c.48,1.33.8,2.55,1.34,3.83A31.23,31.23,0,0,0,44,245.47c.32.95.8,2.07,1.12,3,1.33,3.52,2.4,7.18,4,10.53s3.19,6.66,5,10.05c1,1.92,1.92,3.68,2.88,5.6a4.79,4.79,0,0,1-.48,4.79l-2.24,2.88c-3.52,4.47-7.34,9.32-11.17,13.72a17.63,17.63,0,0,0-4.95,11.81,14.8,14.8,0,0,0,3.51,10.21c3.2,3.36,6.39,6.66,9.73,9.9l1.44,1.43L59,335.65c3.68,3.68,7.5,7.34,11.17,11.17A19.39,19.39,0,0,0,82,353.69a15.79,15.79,0,0,0,11.81-3c6.55-5.11,12.77-10.21,18.2-14.65a5.6,5.6,0,0,1,3.36-1.33,4.5,4.5,0,0,1,2.66.8c1.33.64,2.4,1.33,3.67,1.92a103.88,103.88,0,0,0,12,5.75c4.95,2.08,10.21,3.83,15.32,5.43,1.44.48,3,1,4.47,1.44a4.4,4.4,0,0,1,3.36,4.15c.16,1.92.48,4,.64,5.92l.32,2.39c.16,1.33.32,2.56.48,4,.32,2.87.64,5.91,1,8.93v.48a19.93,19.93,0,0,0,1.59,6.39A15.37,15.37,0,0,0,176,391.69H216.9a29.68,29.68,0,0,0,4-.32,15.88,15.88,0,0,0,10-6.65,14.84,14.84,0,0,0,2.56-6.23L234.94,366c.32-3.2.64-6.23,1-9.32.48-4.64,1.44-5.75,5.75-7.18l2.88-1c4.95-1.6,10.21-3.35,15-5.43a123.79,123.79,0,0,0,11.17-5.59c1.43-.8,2.87-1.6,4.47-2.4a4.24,4.24,0,0,1,5.59.8c.48.48,1.12,1,1.76,1.6l3.67,2.87c3,2.4,5.91,4.8,8.94,7.18.48.48,1.11.8,1.59,1.33a29.11,29.11,0,0,0,4.8,3.36,16,16,0,0,0,18.52-3c5.32-5.32,10.65-10.53,16-16l11.81-11.8a21,21,0,0,0,5.75-7.82A16,16,0,0,0,351,298l-4.16-5.33c-3.35-4.15-6.65-8.45-10.21-12.61a5.06,5.06,0,0,1-.48-6.07c1.6-3,3.52-6.39,5.12-9.89a180.89,180.89,0,0,0,9.57-25.38,5.11,5.11,0,0,1,3.83-3.35,33.58,33.58,0,0,1,4-.48c.48,0,.95-.16,1.43-.16,1.92-.16,3.68-.48,5.6-.64,4.15-.48,8.29-1,12.44-1.33a15.87,15.87,0,0,0,14.37-16V175.61A21.88,21.88,0,0,0,391.72,170ZM197.13,284.3H195.8a88.43,88.43,0,0,1-1.12-176.85H196a89.1,89.1,0,0,1,88.8,86.68v1.2a88.32,88.32,0,0,1-87.65,89Z" fill="#030404"/></svg>