<svg id="Camada_1" data-name="Camada 1" xmlns="http://www.w3.org/2000/svg" viewBox="0 0 273.9 212.47"><path d="M15.8,28.77a154.34,154.34,0,0,0,49.1,7.4,146.16,146.16,0,0,0,49.1-7.4c12.3-4.5,15.2-8.8,15.8-10.3v-.7c0-1.6-2.9-5.8-15.8-10.3A154.37,154.37,0,0,0,64.9,0a146.16,146.16,0,0,0-49.1,7.4C2.9,12.27,0,17,0,18,0,20,2.9,24.57,15.8,28.77Z" transform="translate(0 0)" fill="#c1a35a"/><path d="M15.8,58a154.34,154.34,0,0,0,49.1,7.4,146,146,0,0,0,45.5-6.1,108.89,108.89,0,0,1,19.4-17.1V37a50.9,50.9,0,0,1-9,3.9,166.58,166.58,0,0,1-55.6,8.4,168.66,168.66,0,0,1-55.5-8.4A42.9,42.9,0,0,1,0,37v10.7C0,49.37,2.9,53.57,15.8,58Z" transform="translate(0 0)" fill="#c1a35a"/><path d="M9.3,70.37c-3.5-1.6-6.8-2.6-9-3.9v10.7c-.3,1.3,2.6,5.8,15.5,10a154.34,154.34,0,0,0,49.1,7.4A229.44,229.44,0,0,0,91.1,93a94.11,94.11,0,0,1,7.7-17.1,182.61,182.61,0,0,1-33.9,2.9A166.58,166.58,0,0,1,9.3,70.37Z" transform="translate(0 0)" fill="#c1a35a"/><path d="M64.9,124a207.46,207.46,0,0,0,21-1,87.1,87.1,0,0,1,1.6-16.1c-7.1.7-14.8,1.2-22.6,1.2a169.29,169.29,0,0,1-55.6-8.4C5.8,98,2.52,97,.3,95.77v10.7c-.3,1.3,2.6,5.5,15.5,10.1A154.34,154.34,0,0,0,64.9,124Z" transform="translate(0 0)" fill="#c1a35a"/><path d="M0,136.27c0,1.7,2.9,6.2,15.8,10.4A154.3,154.3,0,0,0,64.9,154a200.77,200.77,0,0,0,24.5-1.6,116.63,116.63,0,0,1-3.2-15.6,213.46,213.46,0,0,1-21.6,1A169.25,169.25,0,0,1,9,129.47c-3.5-1.6-6.8-2.6-9-3.9Z" transform="translate(0 0)" fill="#c1a35a"/><path d="M15.8,176a154.34,154.34,0,0,0,49.1,7.4,162.63,162.63,0,0,0,36.8-3.9,114.5,114.5,0,0,1-7.7-14.2,200.9,200.9,0,0,1-29.1,1.9,168.66,168.66,0,0,1-55.5-8.4c-3.5-1.6-6.8-2.6-9-3.9v10.7C0,167.27,2.9,171.47,15.8,176Z" transform="translate(0 0)" fill="#c1a35a"/><path d="M64.9,196.37A168.66,168.66,0,0,1,9.4,188,40.61,40.61,0,0,1,0,184v10.7c0,1.6,2.9,5.8,15.8,10.3a154.34,154.34,0,0,0,49.1,7.4A146.16,146.16,0,0,0,114,205a65.42,65.42,0,0,0,7.7-3.2,81.7,81.7,0,0,1-11.3-10.7A178.85,178.85,0,0,1,64.9,196.37Z" transform="translate(0 0)" fill="#c1a35a"/><path d="M165.9,103.27H151.8v17h14.1a8.91,8.91,0,0,0,8.5-8.5A8.61,8.61,0,0,0,165.9,103.27Z" transform="translate(0 0)" fill="#030404"/><path d="M187.6,39.67a86.26,86.26,0,1,0,.08,0Zm-12.4,91.1,8.5,22.2a5.45,5.45,0,0,1,.4,4.8,5.94,5.94,0,0,1-3.3,3.3,11,11,0,0,1-3,.7,6.32,6.32,0,0,1-5.5-3.3l-10.7-26.3h-8.9v23.3a6.7,6.7,0,0,1-13.4,0V96.57h0a6.62,6.62,0,0,1,6.64-6.6H166.3a21.47,21.47,0,0,1,21.5,21.44h0v.06a20.73,20.73,0,0,1-12.6,19.3ZM230.7,148a17.79,17.79,0,0,1-10.7,8.1v5.8a3.33,3.33,0,0,1-3.3,3.3h-5.4a3.11,3.11,0,0,1-3.11-3.09v-5.61a30.11,30.11,0,0,1-13.3-7,3.34,3.34,0,0,1-.5-4.3l2.8-4a3.33,3.33,0,0,1,4-1.2c1.2.5,2.3,1,3.4,1.5a53.45,53.45,0,0,0,7,2.9,11,11,0,0,0,5.1-.3,4.43,4.43,0,0,0,2.8-3,5.81,5.81,0,0,0-1-5.4,29.05,29.05,0,0,0-5.6-4.4l-.8-.5c-1.3-.8-2.7-1.5-4-2.3s-2.8-1.5-4.2-2.4a16.33,16.33,0,0,1-7.5-17.8,15.79,15.79,0,0,1,12-13v-5.8a3.33,3.33,0,0,1,3.3-3.3H217a3.33,3.33,0,0,1,3.3,3.3v1.8c0,1.2.1,2.4,0,3.7a20.47,20.47,0,0,1,11.2,7.2,3.33,3.33,0,0,1-.2,4.3l-3.8,4a3.42,3.42,0,0,1-2.3,1h0a3.23,3.23,0,0,1-2.3-1,11,11,0,0,0-7.4-3.9c-4.6-.1-5.4,2.3-5.6,3.1a5,5,0,0,0,2.5,6.2c1.9,1.2,4,2.3,6,3.3.6.3,1.2.6,1.7.9a21.45,21.45,0,0,1,12,12A20.93,20.93,0,0,1,230.7,148Z" transform="translate(0 0)" fill="#030404"/></svg>