<svg id="Camada_1" data-name="Camada 1" xmlns="http://www.w3.org/2000/svg" viewBox="0 0 238.84 166"><path d="M138,124.58l-63.9-43a41.8,41.8,0,0,0,63.9,43Z"/><path d="M115,143.68c-37,0-70.8-20.6-89.1-54a106.74,106.74,0,0,1,20.7-26.6l-15.2-10.2a125.47,125.47,0,0,0-22.9,31.4,12.29,12.29,0,0,0,0,10.9c20.3,39.6,60.5,66.5,106.6,66.5a117.08,117.08,0,0,0,56.4-14.5l-17.2-11.6A100.85,100.85,0,0,1,115,143.68Z"/><path d="M235.26,151.18l-36.6-24.6a125.47,125.47,0,0,0,22.9-31.4,12.29,12.29,0,0,0,0-10.9c-20.3-39.6-60.5-66.5-106.6-66.5a117.08,117.08,0,0,0-56.4,14.5L12.66,1.38a8.18,8.18,0,0,0-11.3,2.2,8.1,8.1,0,0,0,1.7,10.8c.2.2.3.4.5.5l40.2,27,15.9,10.7,36.7,24.7,53.3,35.9,20.4,13.7,15.9,10.7,40.2,27.1c.2.1.5.2.7.3a8.08,8.08,0,0,0,10.6-2.5h0A8.2,8.2,0,0,0,235.26,151.18ZM115,35.78c37,0,70.9,20.6,89.1,54a106.74,106.74,0,0,1-20.7,26.6L156,98a41.94,41.94,0,0,0-29.4-48.6,38.88,38.88,0,0,0-11.7-1.6,42.11,42.11,0,0,0-11.7,1.9,20.77,20.77,0,0,1,2.3,14.3l-29.8-20.1A99.08,99.08,0,0,1,115,35.78Z"/></svg>