<svg id="Camada_1" data-name="Camada 1" xmlns="http://www.w3.org/2000/svg" viewBox="0 0 299.97 299.94"><g id="Group_1495" data-name="Group 1495"><path id="Path_1950" data-name="Path 1950" d="M290.47,255c-12.15-12.56-24.24-25.29-37.22-37-7.63-6.88-7.89-11.9-2.83-21A131.93,131.93,0,0,0,234.7,46.41,133.52,133.52,0,0,0,0,132.76a257.59,257.59,0,0,0,2.82,26,132.73,132.73,0,0,0,195.27,90.88,10.63,10.63,0,0,1,1-.77,13.7,13.7,0,0,1,19,3.9l0,0c11.79,12.87,24.47,25,37,37.22s27,13.21,37.52,2.66a22.72,22.72,0,0,0,1.8-2A25.42,25.42,0,0,0,290.47,255ZM132.74,231.22A98.09,98.09,0,1,1,232,134.31v0h0a98.07,98.07,0,0,1-99.25,96.88h0Z" transform="translate(0 -0.01)" fill="#c1a35a"/><ellipse id="Ellipse_2" data-name="Ellipse 2" cx="133.94" cy="133.13" rx="98.06" ry="98.08" fill="#fff"/><path id="Path_1951" data-name="Path 1951" d="M133.94,64.79a62.27,62.27,0,0,0-11.63-1.28,61,61,0,0,0-59,79.32A108,108,0,0,1,133.94,64.79Z" transform="translate(0 -0.01)" fill="#001e53"/></g></svg>