<svg id="Camada_1" data-name="Camada 1" xmlns="http://www.w3.org/2000/svg" viewBox="0 0 276.4 237.4"><path d="M157.8,0h-.3A115.47,115.47,0,0,0,89,22.1c1.9,1.3,4.2,2.6,6.5,4.2a14.92,14.92,0,0,1,4.9,6.2A103.49,103.49,0,1,1,54,119V29.2A231.24,231.24,0,0,1,81.6,46.4c5.2,3.6,15.3-8.8,9.7-12.3-17.2-11.4-37-23.7-44.8-23.7-8.4,0-28.3,12.7-44.8,24-5.5,3.6,3.6,15.9,9.4,12A286.42,286.42,0,0,1,39,29.2v89.3A118.7,118.7,0,1,0,157.8,0Z" fill="#1d1d1b"/><path d="M163.1,151.7a17.57,17.57,0,0,1-8.8.5,75.17,75.17,0,0,1-12.1-5c-1.8-.9-3.8-1.8-5.9-2.6a5.65,5.65,0,0,0-7,2l-4.8,7a5.68,5.68,0,0,0,.9,7.4,51.66,51.66,0,0,0,23,12.1v9.3a5.57,5.57,0,0,0,5.4,5.7H163a5.7,5.7,0,0,0,5.7-5.7v-10a31.39,31.39,0,0,0,18.6-14.1,33.82,33.82,0,0,0,2-27.3,37.29,37.29,0,0,0-20.8-20.8l-3-1.5a94.81,94.81,0,0,1-10.4-5.7,8.74,8.74,0,0,1-4.3-10.7c.4-1.4,1.8-5.5,9.7-5.3a18.42,18.42,0,0,1,12.8,6.7,5.61,5.61,0,0,0,4,1.7h.1a5.53,5.53,0,0,0,4-1.8l6.6-6.9a5.76,5.76,0,0,0,.4-7.4A34.17,34.17,0,0,0,169,66.8c.1-2.2,0-4.3,0-6.4V57.3a5.7,5.7,0,0,0-5.7-5.7h-9.1a5.7,5.7,0,0,0-5.7,5.7v10a27.59,27.59,0,0,0-20.8,22.5,28.23,28.23,0,0,0,13.1,30.8c2.5,1.6,4.9,2.9,7.3,4.2s4.8,2.6,7,4l1.3.9a47.88,47.88,0,0,1,9.7,7.6,10.55,10.55,0,0,1,1.8,9.4A7.48,7.48,0,0,1,163.1,151.7Z" fill="#1d1d1b"/></svg>