<svg id="Camada_1" data-name="Camada 1" xmlns="http://www.w3.org/2000/svg" viewBox="0 0 245.81 223.18"><path d="M30.31,141.13c-3.7-16.4-11.2-49.5-11.2-49.5l171.8-38.9,9.7,41h10.1s-4.4-18.3-5.6-23.9c-4.4-19.4-8.7-38.8-13.2-58.1A14.3,14.3,0,0,0,175.31.23l-1.3.3q-56.4,12.6-112.9,25.3c-16.8,3.8-33.5,7.5-50.1,11.3A14,14,0,0,0,.31,53.73c0,.1.1.2.1.3,5.3,24.1,10.8,48.2,16.2,72.2,1.5,6.6,2.9,13.2,4.5,19.8a12,12,0,0,0,14.2,8.6c1.5-.2,6.1-1.6,6.1-1.6v-9.6a42.07,42.07,0,0,1-6.1,1.6C31.61,145.53,31,144.43,30.31,141.13ZM12.81,64s-1.9-7.7-2.5-11.4c-.5-3.1,1.6-5.5,5.3-6.3,10.5-2.4,20.9-4.6,31.4-7q62.85-14.1,125.7-28.3c.9-.2,1.9-.5,2.8-.7a5.46,5.46,0,0,1,6.5,3.6c1.1,3.5,2.6,11.1,2.6,11.1Z"/><path d="M245.81,114a13.72,13.72,0,0,0-.9-4.9,14.45,14.45,0,0,0-14.2-9.1H64.21a14.51,14.51,0,0,0-14.5,14.5q-.15,46.65,0,93.3a17.42,17.42,0,0,0,1.7,7.4,14.3,14.3,0,0,0,14.1,7.9h165.7a14.79,14.79,0,0,0,14.6-14.8C245.71,177,245.81,145.53,245.81,114Zm-140.7,80.3v3.2a2.69,2.69,0,0,1-2.7,2.7H74.91a2.69,2.69,0,0,1-2.7-2.7h0v-3.2a2.69,2.69,0,0,1,2.7-2.7h27.4a2.78,2.78,0,0,1,2.8,2.7Zm40.6,0v3.2a2.69,2.69,0,0,1-2.7,2.7h-27.4a2.69,2.69,0,0,1-2.7-2.7h0v-3.2a2.69,2.69,0,0,1,2.7-2.7H143a2.75,2.75,0,0,1,2.7,2.7Zm37.7,6h-27.5a2.69,2.69,0,0,1-2.7-2.7h0v-3.2a2.69,2.69,0,0,1,2.7-2.7h27.4a2.69,2.69,0,0,1,2.7,2.7h0v3.2A2.6,2.6,0,0,1,183.41,200.33Zm43.3-6v3.2a2.69,2.69,0,0,1-2.7,2.7h-27.4a2.69,2.69,0,0,1-2.7-2.7h0v-3.2a2.69,2.69,0,0,1,2.7-2.7H224a2.75,2.75,0,0,1,2.7,2.7Zm1.2-61.8a11.86,11.86,0,0,1-11.9,11.9h-22.9a11.86,11.86,0,0,1-11.9-11.9v-.1a11.86,11.86,0,0,1,11.9-11.9H216a12,12,0,0,1,11.9,12Z"/></svg>