<svg id="Camada_1" data-name="Camada 1" xmlns="http://www.w3.org/2000/svg" viewBox="0 0 207.4 263"><path d="M197.2,110.6c-2.9.6-4,3.2-3.7,7,.4,4.6.9,9.4.3,14a49.33,49.33,0,1,1-73.9-48.7c9.1-5.3,18.9-7.3,29.4-6.9,3.3.1,5.5-1.8,5.6-4.6s-2.1-5.1-5.5-5.1a99.07,99.07,0,0,0-12.3.5,59.16,59.16,0,0,0-50.9,66c3.5,29.6,28.9,52,58.9,52.5,5.3-.9,10.6-1.4,15.7-2.7,29-7.7,47.8-37.3,42.7-66.8C202.7,111.9,200.4,109.9,197.2,110.6Z" transform="translate(0 0)"/><path d="M140.2,220.6H10.5V26H140.2V55.7h10.5V21A20.87,20.87,0,0,0,130,0H21A20.87,20.87,0,0,0,0,20.7V242a20.87,20.87,0,0,0,20.7,21h109a20.87,20.87,0,0,0,21-20.7V193.6H140.2ZM52.7,9.6h45a4.57,4.57,0,0,1,4.6,4.5v.2a4.27,4.27,0,0,1-4.24,4.3H52.7a4.34,4.34,0,0,1-4.59-4.07,1.77,1.77,0,0,1,0-.23h0A4.74,4.74,0,0,1,52.7,9.6ZM75.5,254.3h0a11.8,11.8,0,1,1,11.8-11.8A11.8,11.8,0,0,1,75.5,254.3Z" transform="translate(0 0)"/><path d="M150,100.1V98.8a2.48,2.48,0,0,0-2.46-2.5H143.6a2.48,2.48,0,0,0-2.5,2.46v4.34a11.62,11.62,0,0,0-8.9,9.7,12.24,12.24,0,0,0,5.6,13.3c1.1.7,2.1,1.2,3.1,1.8s2.1,1.1,3,1.7l.6.4a21.6,21.6,0,0,1,4.2,3.3,4.43,4.43,0,0,1,.8,4,3.16,3.16,0,0,1-2,2.2,6.92,6.92,0,0,1-3.8.2,48.71,48.71,0,0,1-5.2-2.1,19.16,19.16,0,0,0-2.5-1.1,2.37,2.37,0,0,0-3,.9l-2,3a2.44,2.44,0,0,0,.4,3.2,22,22,0,0,0,9.9,5.2v4a2.35,2.35,0,0,0,2.3,2.4h3.9a2.48,2.48,0,0,0,2.5-2.46V148.3a13.58,13.58,0,0,0,8-6.1,14.68,14.68,0,0,0,.9-11.8,15.89,15.89,0,0,0-8.9-8.9c-.4-.2-.9-.4-1.3-.6q-2.31-1.14-4.5-2.5a3.62,3.62,0,0,1-1.8-4.6c.2-.6.8-2.4,4.2-2.3a8.1,8.1,0,0,1,5.5,2.9,2.32,2.32,0,0,0,1.7.7h0a2.15,2.15,0,0,0,1.7-.8l2.8-3a2.56,2.56,0,0,0,.2-3.2,15,15,0,0,0-8.3-5.4A10.83,10.83,0,0,1,150,100.1Z" transform="translate(0 0)"/><path d="M203.5,57.7a4.08,4.08,0,0,0-3,1.4.3.3,0,0,0-.2.1l-25.1,25V69.1c0-2.9-1.6-4.8-4.1-4.8h0c-2.5,0-4,1.8-4,4.8V93.3c0,3.4,1.4,4.8,4.7,4.8,8.2.1,16.4,0,24.5,0,2.8,0,4.6-1.5,4.6-3.9a3.64,3.64,0,0,0-1-2.7,5.73,5.73,0,0,0-3.7-1.4H181l25.3-25.7c.1-.1.1-.1.1-.2a4,4,0,0,0,1-2.6,3.84,3.84,0,0,0-3.78-3.9Z" transform="translate(0 0)"/></svg>