<svg id="Group_1266" data-name="Group 1266" xmlns="http://www.w3.org/2000/svg" viewBox="0 0 394.07 338.44"><path id="Path_1853" data-name="Path 1853" d="M378.25,272.23a392.54,392.54,0,0,1-39.81,24.55V169.45A169.22,169.22,0,1,0,169,338.44h.45A165.23,165.23,0,0,0,267.13,307c-2.74-1.82-6-3.71-9.29-6a21.14,21.14,0,0,1-7-8.79A147.38,147.38,0,1,1,317.08,169V296.78a322.12,322.12,0,0,1-39.34-24.55c-7.41-5.1-21.77,12.5-13.94,17.6,24.53,16.2,52.78,33.8,63.88,33.8,12.05,0,40.28-18.06,63.89-34.27C399.57,284.27,386.59,266.67,378.25,272.23Z"/><path id="Path_1854" data-name="Path 1854" d="M164.32,268.07h13.11a8.13,8.13,0,0,0,8.13-8.13h0V245.7A44.53,44.53,0,0,0,212,225.59a48.18,48.18,0,0,0,2.88-39,53.41,53.41,0,0,0-29.6-29.6c-1.36-.74-2.88-1.36-4.25-2.11a153.91,153.91,0,0,1-14.87-8.13,12.37,12.37,0,0,1-6.12-15.24c.63-2,2.61-7.88,13.87-7.61a26.09,26.09,0,0,1,18.23,9.5,8.3,8.3,0,0,0,5.75,2.32h.12a8.44,8.44,0,0,0,5.75-2.49l9.37-9.88a8.12,8.12,0,0,0,.51-10.62,49.31,49.31,0,0,0-27.61-17.87c.12-3.12,0-6.12,0-9.13V81.3a8.13,8.13,0,0,0-8.13-8.13h-13a8.13,8.13,0,0,0-8.13,8.13V95.54a39.21,39.21,0,0,0-29.6,32.11,40.35,40.35,0,0,0,18.58,44c3.48,2.26,7,4.08,10.37,6s6.87,3.75,10,5.74l1.87,1.24a65.42,65.42,0,0,1,13.87,10.86,14.64,14.64,0,0,1,2.5,13.37,10.45,10.45,0,0,1-6.79,7.37A25,25,0,0,1,165,217a115.74,115.74,0,0,1-17.25-7.12c-2.61-1.26-5.42-2.5-8.36-3.76a8.13,8.13,0,0,0-10,2.89l-6.78,10a8,8,0,0,0,1.25,10.46,72.59,72.59,0,0,0,32.72,17.25v13.23a7.91,7.91,0,0,0,7.62,8.18Z"/></svg>