<svg id="Camada_1" data-name="Camada 1" xmlns="http://www.w3.org/2000/svg" viewBox="0 0 390.1 381.08"><path d="M395,233.3V211.9c-.2-15.1-4.9-25.6-14-31.3-10-6.2-10.6-15-11.3-23.7a39.48,39.48,0,0,0-.9-5.5l-.3-1.8A171.56,171.56,0,0,0,168.7,12.4c-2.6.5-5.4,1.1-8,1.7C86.8,31.4,34,93.7,29,169.5a6.92,6.92,0,0,1-3.9,5.9C12.8,183.1,6,193.7,5.5,206.2c-.6,17-1.1,36.5.3,56,1.5,20.3,21.7,37,43.2,35.6,14.3-.9,25.9-12.5,26.1-26.2.5-26.2.3-53,0-76.2,0-9.6-4.8-17.1-14-22.7-1.1-.6-2.3-1.2-3.7-1.8-2-.9-4.3-1.8-4.8-2.9-.8-1.5-.2-4.3.5-6.9a28.29,28.29,0,0,0,.6-3.7c.5-2.8.9-5.9,1.5-8.8C73.1,69,152.4,18.7,231.9,36.6A147.7,147.7,0,0,1,346.6,165.9c.3,3.2-.2,3.7-2.6,4.3-12.2,3.5-19.7,13.3-19.9,25.3-.3,24-.3,49.5,0,75.5.2,11.4,6,20.2,15.4,23.1,6.9,2.2,8.8,5.1,7.7,13.7a10.28,10.28,0,0,0,0,3.5v2c-.5,19.6-15.1,34.1-34.7,34.7-7.4.2-15.3.3-22.7,0a6.86,6.86,0,0,1-4.8-2.9c-6.3-10.2-15.3-15.4-26.8-15.6-9.4-.2-18.8-.2-27.7,0-17.6.3-30.8,13.3-31,30.1-.2,17,12.9,30.1,30.4,30.7,4.5.2,8.9.2,13.3.2,5.4,0,10.5-.2,15.1-.2,11.9-.3,21.1-5.7,27-16.3.8-1.5,2.3-2.5,4.8-2.5,8.2.2,15.9.2,23.4,0,27.9-.8,50.3-19.1,55.8-45.9,1.5-7.2,1.5-14.8,1.5-22.5v-6c0-3.4.9-4.5,3.1-5.7,13.3-8,20-20.2,20.5-36.2.2-4.9.2-9.9,0-15.1Zm-41.9,41a5.27,5.27,0,0,1-3.2-.9c-1.4-1.2-1.7-3.7-1.7-5.5V199.5c0-2,.3-4.5,1.7-5.7.3-.3,1.1-.9,3.4-.9.8,0,1.7.2,2.9.3,8.3,1.5,14.3,8,14.6,15.6.6,16.8.6,33.8,0,49.9-.3,7.7-6.6,14.3-15.1,15.7A10.88,10.88,0,0,0,353.1,274.3ZM29.2,258.5c-.6-16.6-.6-33.5,0-49.9.3-7.7,6.6-14.3,15.1-15.7a9.75,9.75,0,0,1,2.5-.2,5.71,5.71,0,0,1,3.4.9h0c1.4,1.2,1.7,3.7,1.7,5.5v68.4c0,2.8-.6,4.8-1.7,5.5a4.81,4.81,0,0,1-3.4,1.1c-1.1,0-2-.2-3.1-.3C35.4,272.5,29.3,266,29.2,258.5Zm201.9,94.9a45.2,45.2,0,0,1,5.2-.2h13.3c2.8,0,5.9-.2,8.8,0,4.6.2,7.6,3.1,7.4,6.9s-2.9,6.5-7.2,6.5h0c-9.1.3-18.7.3-27.4,0-4.6-.2-7.4-2.8-7.4-6.9C223.9,354.3,229,353.6,231.1,353.4Z" transform="translate(-4.9 -9.42)"/><path d="M174.4,155.6c4.8,2.8,8.5,1.4,11.3-3.1,4-6.2,10-7.1,16.5-6,8.8,1.5,11.9,9.2,6.3,16.3a45.59,45.59,0,0,1-8.8,8.2c-7.7,6.2-11.1,14-10.6,23.7.2,5.2,2,8.5,7.7,8.6,5.9.2,8.6-2,8.6-8.2.2-7.1,3.2-12.3,8.8-16.3a48.77,48.77,0,0,0,5.9-5.2c7.4-7.7,12-16.6,8.2-27.4-4-11.3-13.9-15-24.7-16.5a14.78,14.78,0,0,0-4.2,0c-11.1.2-21.3,2.6-27.1,13.4C169.3,148.2,170.4,153.3,174.4,155.6Z" transform="translate(-4.9 -9.42)"/><path d="M196.8,210.2h0a9.65,9.65,0,0,0-9.1,10v.2a9.14,9.14,0,0,0,9.4,9.1h0a9.35,9.35,0,0,0,9.4-9.2v-.5A9.82,9.82,0,0,0,196.8,210.2Z" transform="translate(-4.9 -9.42)"/><path d="M213.6,285.4a16.6,16.6,0,0,1,2.2-.3l.8-.2a106,106,0,0,0,86.2-78.6,103.8,103.8,0,0,0,3.2-25.9A106,106,0,0,0,200.2,74.6h0A106,106,0,0,0,94.4,180.4c0,34.4,16.6,66.8,44.4,86.3l1.4,1.1a3.46,3.46,0,0,1,.2,1.8c-.2,2.9-.2,14.6,0,22.4v9.2c-.2,13.6,7.2,19.4,13.6,21.9a24,24,0,0,0,8.3,1.7c5.1,0,10.8-1.8,16.6-7.7l11.4-11.4c5.1-5.1,10.3-10.2,15.6-15.7A13.31,13.31,0,0,1,213.6,285.4ZM157,251.1l-1.4-.9a82.35,82.35,0,0,1-19.2-122.4c15.6-19,38.7-29.8,64-29.8h0a82.46,82.46,0,0,1,14.2,163.6,11.43,11.43,0,0,1-2.8.3c-4.9.6-13.1,1.5-18.3,6.8-1.5,1.5-5.9,6-10.9,11.3l-19,19.4V268.7C163.8,259.1,163.8,255.4,157,251.1Z" transform="translate(-4.9 -9.42)"/></svg>