<svg id="Camada_1" data-name="Camada 1" xmlns="http://www.w3.org/2000/svg" viewBox="0 0 242.53 161.7"><path d="M121.3,33.7a49.18,49.18,0,0,0-13.2,2.1,22.86,22.86,0,0,1,3,11.4A23.64,23.64,0,0,1,87.5,70.8a23.94,23.94,0,0,1-11.4-3,47,47,0,1,0,58.2-32.2A40.14,40.14,0,0,0,121.3,33.7Zm119.8,41C218.3,30.2,173.1,0,121.3,0S24.3,30.1,1.5,74.7A13.36,13.36,0,0,0,1.5,87c22.8,44.5,68,74.7,119.8,74.7s97-30.2,119.8-74.7A14,14,0,0,0,241.1,74.7ZM121.3,141.4c-41.5,0-79.6-23.2-100.2-60.6C41.7,43.3,79.7,20.2,121.3,20.2s79.6,23.2,100.2,60.6C200.9,118.3,162.8,141.4,121.3,141.4Z"/></svg>