<svg xmlns="http://www.w3.org/2000/svg" width="31.948" height="24.782" viewBox="0 0 31.948 24.782">
  <g id="icon_saldo_cor2" transform="translate(0 0.003)">
    <path id="Path_2059" data-name="Path 2059" d="M1.843,3.323a18,18,0,0,0,5.727.863A17.048,17.048,0,0,0,13.3,3.323C14.732,2.8,15.07,2.3,15.14,2.122V2.04c0-.187-.338-.677-1.843-1.2A18.006,18.006,0,0,0,7.57-.029,17.048,17.048,0,0,0,1.843.834C.338,1.4,0,1.954,0,2.071,0,2.3.338,2.834,1.843,3.323Z" transform="translate(0 0.03)" fill="#c1a35a"/>
    <path id="Path_2060" data-name="Path 2060" d="M1.843,39.449a18,18,0,0,0,5.727.863,17.029,17.029,0,0,0,5.307-.712,12.7,12.7,0,0,1,2.263-1.995V37a5.937,5.937,0,0,1-1.05.455,19.43,19.43,0,0,1-6.485.98,19.672,19.672,0,0,1-6.473-.98A5,5,0,0,1,0,37v1.248C0,38.439.338,38.929,1.843,39.449Z" transform="translate(0 -32.683)" fill="#c1a35a"/>
    <path id="Path_2061" data-name="Path 2061" d="M1.332,66.895c-.408-.187-.793-.3-1.05-.455v1.248c-.035.152.3.677,1.808,1.166a18,18,0,0,0,5.727.863,26.764,26.764,0,0,0,3.056-.187,10.977,10.977,0,0,1,.9-1.995,21.3,21.3,0,0,1-3.954.338,19.43,19.43,0,0,1-6.485-.98Z" transform="translate(-0.247 -58.689)" fill="#c1a35a"/>
    <path id="Path_2062" data-name="Path 2062" d="M7.817,99.029a24.2,24.2,0,0,0,2.449-.117,10.159,10.159,0,0,1,.187-1.878c-.828.082-1.726.14-2.636.14a19.746,19.746,0,0,1-6.485-.98C.923,96,.541,95.887.282,95.74v1.248c-.035.152.3.642,1.808,1.178a18,18,0,0,0,5.727.863Z" transform="translate(-0.247 -84.572)" fill="#c1a35a"/>
    <path id="Path_2063" data-name="Path 2063" d="M0,126.788c0,.2.338.723,1.843,1.213a18,18,0,0,0,5.727.858,23.419,23.419,0,0,0,2.858-.187,13.6,13.6,0,0,1-.373-1.82,24.9,24.9,0,0,1-2.519.117,19.746,19.746,0,0,1-6.485-.975c-.408-.187-.793-.3-1.05-.455Z" transform="translate(0 -110.896)" fill="#c1a35a"/>
    <path id="Path_2064" data-name="Path 2064" d="M2.165,157.3a18,18,0,0,0,5.727.863,18.967,18.967,0,0,0,4.292-.455,13.355,13.355,0,0,1-.9-1.656,23.429,23.429,0,0,1-3.394.222,19.673,19.673,0,0,1-6.473-.98c-.408-.187-.793-.3-1.05-.455v1.248C.322,156.286.661,156.776,2.165,157.3Z" transform="translate(-0.322 -136.778)" fill="#c1a35a"/>
    <path id="Path_2065" data-name="Path 2065" d="M7.57,185.439a19.672,19.672,0,0,1-6.473-.98A4.736,4.736,0,0,1,0,184v1.248c0,.187.338.677,1.843,1.2a18,18,0,0,0,5.727.863,17.048,17.048,0,0,0,5.727-.863,7.631,7.631,0,0,0,.9-.373,9.529,9.529,0,0,1-1.318-1.248,20.86,20.86,0,0,1-5.307.611Z" transform="translate(0 -162.537)" fill="#c1a35a"/>
    <path id="Path_2066" data-name="Path 2066" d="M153.445,103.24H151.8v1.983h1.645a1.039,1.039,0,0,0,.991-.991A1,1,0,0,0,153.445,103.24Z" transform="translate(-134.094 -91.197)" fill="#030404"/>
    <path id="Path_2067" data-name="Path 2067" d="M111.437,39.64a10.062,10.062,0,1,0,.007,0ZM109.99,50.266l.991,2.589a.636.636,0,0,1,.047.56.693.693,0,0,1-.385.385,1.283,1.283,0,0,1-.35.082.737.737,0,0,1-.642-.385L108.4,50.429h-1.038v2.718a.781.781,0,1,1-1.563,0v-6.87h0a.772.772,0,0,1,.774-.77h2.375a2.5,2.5,0,0,1,2.508,2.5v.007A2.418,2.418,0,0,1,109.99,50.266Zm6.473,2.013a2.075,2.075,0,0,1-1.248.945V53.9a.388.388,0,0,1-.385.385h-.63a.363.363,0,0,1-.363-.36q0-.012,0-.024v-.63a3.506,3.506,0,0,1-1.551-.816.39.39,0,0,1-.058-.5l.327-.467a.388.388,0,0,1,.467-.14c.14.058.268.117.4.175a6.233,6.233,0,0,0,.816.338,1.283,1.283,0,0,0,.595-.035.517.517,0,0,0,.327-.35.678.678,0,0,0-.117-.63,3.388,3.388,0,0,0-.653-.513l-.093-.058c-.152-.093-.315-.175-.467-.268s-.327-.175-.49-.28a1.9,1.9,0,0,1-.875-2.076,1.842,1.842,0,0,1,1.4-1.516v-.677a.388.388,0,0,1,.385-.385h.619a.388.388,0,0,1,.385.385v.21c0,.14.012.28,0,.432a2.388,2.388,0,0,1,1.306.84.388.388,0,0,1-.023.5l-.443.467a.4.4,0,0,1-.268.117h0a.377.377,0,0,1-.268-.117,1.283,1.283,0,0,0-.863-.455c-.537-.012-.63.268-.653.362a.583.583,0,0,0,.292.723c.222.14.467.268.7.385.07.035.14.07.2.1a2.5,2.5,0,0,1,1.4,1.4A2.441,2.441,0,0,1,116.464,52.279Z" transform="translate(-89.555 -35.015)" fill="#030404"/>
  </g>
</svg>
