<svg id="Camada_1" data-name="Camada 1" xmlns="http://www.w3.org/2000/svg" viewBox="0 0 390.1 376.8"><path d="M384.9,314.8H355.5V64a52.54,52.54,0,0,0-52.2-52.4H56.5a56.5,56.5,0,0,0-12.9,1.8A53.62,53.62,0,0,0,5,64V74.9A10.34,10.34,0,0,0,15.1,85H89.5V336a52.54,52.54,0,0,0,52.2,52.4h201a52.54,52.54,0,0,0,52.4-52.2h0V324.7A10.38,10.38,0,0,0,384.9,314.8ZM89.9,65H25.6V64A32.1,32.1,0,0,1,47.2,33.7a28.65,28.65,0,0,1,10.5-1.8A32.31,32.31,0,0,1,90,64v1Zm83.9,259.9v11.5a32.1,32.1,0,0,1-64.2,0V64A52.94,52.94,0,0,0,98.7,31.9H302.8A32.2,32.2,0,0,1,334.9,64V315h-151A10.16,10.16,0,0,0,173.8,324.9Zm201,11.5h-.4a32.2,32.2,0,0,1-32.1,32.1H183.5a52.73,52.73,0,0,0,10.9-32.1v-1H374.7v1Z" transform="translate(-5 -11.6)"/><path d="M252.6,243.8H165a7.8,7.8,0,0,0,0,15.6h87.7a7.8,7.8,0,1,0-.1-15.6Z" transform="translate(-5 -11.6)"/><path d="M207.8,284.9v-.3a8.15,8.15,0,0,0-7.8-7.8H165a7.8,7.8,0,0,0,0,15.6h34.9A7.58,7.58,0,0,0,207.8,284.9Z" transform="translate(-5 -11.6)"/><path d="M164.5,225.9h87.7a7.8,7.8,0,1,0,0-15.6H164.5a7.81,7.81,0,0,0-7.8,7.8A7.94,7.94,0,0,0,164.5,225.9Z" transform="translate(-5 -11.6)"/><path d="M165.1,192.8h87.5a7.8,7.8,0,0,0,0-15.6H165a7.81,7.81,0,0,0-7.8,7.8A7.9,7.9,0,0,0,165.1,192.8Z" transform="translate(-5 -11.6)"/><path d="M309.1,243.8H274.2a7.8,7.8,0,0,0,0,15.6h34.9a8.08,8.08,0,0,0,7.8-7.8A8.64,8.64,0,0,0,309.1,243.8Z" transform="translate(-5 -11.6)"/><path d="M309.1,276.9H274.2a7.8,7.8,0,0,0,0,15.6h34.9a8.08,8.08,0,0,0,7.8-7.8A8.39,8.39,0,0,0,309.1,276.9Z" transform="translate(-5 -11.6)"/><path d="M273.1,225.9h35.6a7.8,7.8,0,1,0,0-15.6H273.8a8.08,8.08,0,0,0-7.8,7.8A7.54,7.54,0,0,0,273.1,225.9Z" transform="translate(-5 -11.6)"/><path d="M274.1,192.8h35a7.8,7.8,0,0,0,0-15.6H274.2a8.08,8.08,0,0,0-7.8,7.8A7.72,7.72,0,0,0,274.1,192.8Z" transform="translate(-5 -11.6)"/><path d="M145,243.8h-9.3a7.8,7.8,0,0,0,0,15.6h9.1a8.08,8.08,0,0,0,7.8-7.8A8.28,8.28,0,0,0,145,243.8Z" transform="translate(-5 -11.6)"/><path d="M145,276.9h-9.3a7.8,7.8,0,1,0,0,15.6h9.1a7.8,7.8,0,0,0,.2-15.6Z" transform="translate(-5 -11.6)"/><path d="M134.5,225.9h9.8a7.8,7.8,0,0,0,0-15.6h-9.1a8.08,8.08,0,0,0-7.8,7.8A7.68,7.68,0,0,0,134.5,225.9Z" transform="translate(-5 -11.6)"/><path d="M144.9,177.7h-9.1a7.8,7.8,0,0,0,0,15.6h9.1a7.8,7.8,0,0,0,0-15.6Z" transform="translate(-5 -11.6)"/><path d="M214.7,148.8v7.3a4.6,4.6,0,0,0,4.3,4.6h7.4a4.65,4.65,0,0,0,4.6-4.6v-8a24.92,24.92,0,0,0,14.8-11.2,27.46,27.46,0,0,0,1.7-21.9,29.76,29.76,0,0,0-16.6-16.6c-.7-.4-1.7-.7-2.4-1.2a73.67,73.67,0,0,1-8.3-4.6,7,7,0,0,1-3.5-8.6c.4-1.1,1.5-4.4,7.8-4.3A14.66,14.66,0,0,1,234.7,85a4.93,4.93,0,0,0,3.2,1.4h0a4.72,4.72,0,0,0,3.2-1.4l5.3-5.5a4.69,4.69,0,0,0,.3-6,27.35,27.35,0,0,0-15.5-10c.1-1.8,0-3.5,0-5.1V55.9a4.65,4.65,0,0,0-4.6-4.6h-7.1a4.65,4.65,0,0,0-4.6,4.6v8a22,22,0,0,0-16.6,18,22.86,22.86,0,0,0,10.4,24.7c1.9,1.2,3.9,2.2,5.8,3.3s3.9,2.1,5.5,3.2l1.1.7a38.19,38.19,0,0,1,7.8,6.1,8,8,0,0,1,1.4,7.5,6,6,0,0,1-3.7,4.2,15.4,15.4,0,0,1-7.1.4,73.43,73.43,0,0,1-9.7-4c-1.5-.7-3-1.4-4.7-2.1a4.34,4.34,0,0,0-5.5,1.7l-3.7,5.5a4.44,4.44,0,0,0,.7,5.8A38.84,38.84,0,0,0,214.7,148.8Z" transform="translate(-5 -11.6)"/></svg>