<svg id="Camada_1" data-name="Camada 1" xmlns="http://www.w3.org/2000/svg" viewBox="0 0 279.38 278.7"><g id="pix"><path id="Path_417" data-name="Path 417" d="M.6,134.9c.6-2.3,1-4.6,1.6-6.9A38.42,38.42,0,0,1,13,109.7L44.1,78.6a3.19,3.19,0,0,1,2.6-1,22.61,22.61,0,0,0,5.2,0H66.6a27.46,27.46,0,0,1,19,8.5l41.2,41.3a19.78,19.78,0,0,0,28,1.1,11.41,11.41,0,0,0,1.1-1.1l41.8-41.6a26.86,26.86,0,0,1,20-8.2c4.9,0,9.5.3,14.4,0a6.08,6.08,0,0,1,5.6,2.3c10.1,10.1,20.6,20.3,30.5,30.8A39.7,39.7,0,0,1,279,143.8a40.32,40.32,0,0,1-12.5,25.5l-30.8,30.8c-.6.6-1.3,1.3-2.3.6-.6-.3-1.6,0-2.3,0-5.6,0-11.4,0-17-.3a26.52,26.52,0,0,1-16.4-7.9l-41.3-41.3a20.51,20.51,0,0,0-25.2-3.6,19.68,19.68,0,0,0-4.3,3.3L86,191.8A29.77,29.77,0,0,1,64.1,201c-5.6,0-11.1-.3-16.7,0a6.5,6.5,0,0,1-5.2-2.3L12.7,169.3A42.86,42.86,0,0,1,.3,144c0-.3-.3-.3-.3-.6A40.08,40.08,0,0,0,.6,134.9Zm115.9,4.6-1-1L78.2,101.2a31.39,31.39,0,0,0-11.1-6.9A35.2,35.2,0,0,0,52.7,93a3,3,0,0,0-2.3,1c-7.6,7.2-14.7,14.7-22.3,21.9a41.33,41.33,0,0,0-11.4,20.6v3.9A43.88,43.88,0,0,0,26.8,161c6.5,6.9,13.4,13.4,20,20,1.6,1.6,2.9,3.6,4.6,4.3a21.37,21.37,0,0,0,6.2.3,29.38,29.38,0,0,0,21.3-8.8l36-36.2c.6-.5,1.3-.8,1.6-1.1Zm50.1-.3,1,1,37.3,37.3,1.3,1.3a31.49,31.49,0,0,0,20.6,6.9,3.54,3.54,0,0,0,2.6-1c7.2-7.2,14.4-14.7,21.9-21.9a41.33,41.33,0,0,0,11.4-20.6,8.64,8.64,0,0,0,.3-3.9,43.88,43.88,0,0,0-10.1-20.6c-7.9-8.2-15.7-15.7-23.6-23.9a1.61,1.61,0,0,0-1.3-.6,28.37,28.37,0,0,0-22.8,8.2c-12.4,12.1-24.6,24.6-37,36.7a3.85,3.85,0,0,0-1.6,1.1Z"/><path id="Path_418" data-name="Path 418" d="M144,0c2.3.6,4.6,1,6.9,1.6a38.42,38.42,0,0,1,18.3,10.8l51.7,51.7a8.64,8.64,0,0,0,1.6,1c.3,0,0,0,0,.3h-5.1a38.15,38.15,0,0,0-28.2,11.8l-41.3,41.3a7.56,7.56,0,0,1-10.6,1.8,7.69,7.69,0,0,1-1.8-1.8L94.2,77.2A38.81,38.81,0,0,0,65.7,65.4H57.6a6.53,6.53,0,0,0,1.3-1.6l51.4-51.4A41.75,41.75,0,0,1,134.9.3c.3,0,.6-.3,1-.3Zm46.2,55-1-1L163,27.8A40.36,40.36,0,0,0,143.7,17a11.62,11.62,0,0,0-4.9-.6,36.39,36.39,0,0,0-20.3,10.1C109.3,35.3,100.2,44.8,91,54a.86.86,0,0,0-.3.6c.3.3.6.3.6.6a39.73,39.73,0,0,1,10.5,8.2c12.8,12.8,25.5,25.5,38.3,38.6a11.34,11.34,0,0,0,1.3,1.6c.6-.6,1-1.3,1.3-1.6L180,64.8A59.17,59.17,0,0,1,190.2,55Z"/><path id="Path_419" data-name="Path 419" d="M135.5,278.3c-2.3-.6-4.6-1-6.9-1.6a38.42,38.42,0,0,1-18.3-10.8c-17.7-17-34.7-34-51.7-51.4a11.34,11.34,0,0,0-1.3-1.6h7.9A40.25,40.25,0,0,0,94,201.5l41.3-41.3a8,8,0,0,1,12.8,0l40,40a40.34,40.34,0,0,0,31.1,13.1h3.6a1.52,1.52,0,0,0-.6,1c-17.7,17.7-35,35.4-52.7,52.7a41.2,41.2,0,0,1-24.2,11.4c-.3,0-.6.3-1,.3A53.29,53.29,0,0,0,135.5,278.3ZM90.6,224.2l1,1,24.9,24.9a41.33,41.33,0,0,0,20.6,11.4,8.64,8.64,0,0,0,3.9.3,36.39,36.39,0,0,0,20.3-10.1c9.8-9.5,19-19,28.8-28.5a.86.86,0,0,0,.3-.6,60.72,60.72,0,0,1-13.1-11.1c-11.4-11.4-22.8-22.8-34.4-34.7a11.34,11.34,0,0,0-1.3-1.6c-.6.6-1,1.3-1.3,1.6l-39.6,39.6a13.65,13.65,0,0,1-2.3,1.9,57,57,0,0,1-7.8,5.9Z"/></g></svg>