<svg xmlns="http://www.w3.org/2000/svg" width="17.97" height="10.975" viewBox="0 0 17.97 10.975">
  <path id="Path_2072" data-name="Path 2072" d="M36.877,28.238a2.791,2.791,0,0,1-.3.3l-2.515,2.515c-.828.828-1.657,1.627-2.485,2.485a2.127,2.127,0,1,0,3.047,2.958c2.13-2.13,4.26-4.319,6.449-6.42a2.438,2.438,0,0,0,0-3.609c-1.953-1.864-3.816-3.816-5.739-5.71a6.958,6.958,0,0,0-.888-.976,2.1,2.1,0,0,0-3.284.71,2.144,2.144,0,0,0,.562,2.574l4.852,4.852A3.242,3.242,0,0,1,36.877,28.238Z" transform="translate(37.233 -30.902) rotate(90)" fill="#e3e3e3"/>
</svg>
