<svg id="Camada_1" fill="#D1BA83" data-name="Camada 1" xmlns="http://www.w3.org/2000/svg" viewBox="0 0 390.7 341.96"><path id="sair" d="M73.28,342h48.85a24.43,24.43,0,1,0,0-48.86H73.28a24.43,24.43,0,0,1-24.42-24.42V73.28A24.42,24.42,0,0,1,73.28,48.86h48.85a24.43,24.43,0,1,0,0-48.86H73.28A73.28,73.28,0,0,0,0,73.28H0v195.4A73.29,73.29,0,0,0,73.28,342Zm312-184.31-110-103.8A18.33,18.33,0,0,0,244.4,67.09v55H146.62a24.44,24.44,0,0,0-24.44,24.42v48.85a24.44,24.44,0,0,0,24.44,24.39h97.69V274a18.34,18.34,0,0,0,30.93,13.32l110-103.8a18.08,18.08,0,0,0,.36-25.57C385.5,157.84,385.4,157.75,385.31,157.65Z"/></svg>