<svg id="Camada_1" data-name="Camada 1" xmlns="http://www.w3.org/2000/svg" viewBox="0 0 239.29 391.35"><path id="Path_2072" data-name="Path 2072" d="M108.8,196a61,61,0,0,1,6.53-6.53l54.78-54.79c18-18,36.1-35.44,54.13-54.13a46.33,46.33,0,1,0-66.37-64.43C111.48,62.47,65.08,110.15,17.4,155.91a53.11,53.11,0,0,0-3.6,75q1.71,1.89,3.6,3.6c42.54,40.6,83.12,83.12,125,124.38a151.66,151.66,0,0,0,19.34,21.26,45.74,45.74,0,0,0,64.53-4.6,45.27,45.27,0,0,0,7-10.87A46.7,46.7,0,0,0,221,308.63L115.35,202.94A69.82,69.82,0,0,1,108.8,196Z"/></svg>