<svg id="Camada_1" data-name="Camada 1" xmlns="http://www.w3.org/2000/svg" viewBox="0 0 391.35 239.29"><path id="Path_2072" data-name="Path 2072" d="M195.4,108.8a60.09,60.09,0,0,1,6.53,6.53l54.79,54.78c18,18,35.44,36.1,54.13,54.13a46.33,46.33,0,1,0,64.43-66.37C328.88,111.48,281.2,65.08,235.44,17.4a53.11,53.11,0,0,0-75-3.6q-1.89,1.71-3.6,3.6c-40.6,42.54-83.12,83.12-124.38,125a151.66,151.66,0,0,0-21.26,19.34,45.74,45.74,0,0,0,4.6,64.53,45.27,45.27,0,0,0,10.87,7A46.7,46.7,0,0,0,82.72,221L188.41,115.35A69.82,69.82,0,0,1,195.4,108.8Z" transform="translate(0 0)"/></svg>