<svg id="Camada_1" data-name="Camada 1" xmlns="http://www.w3.org/2000/svg" viewBox="0 0 391.35 239.29"><path id="Path_2072" data-name="Path 2072" d="M196,130.49a61,61,0,0,1-6.53-6.53L134.63,69.17c-18-18-35.44-36.09-54.13-54.13A46.33,46.33,0,1,0,16.07,81.42c46.4,46.39,94.08,92.79,139.84,140.47a53.11,53.11,0,0,0,75,3.6q1.89-1.71,3.6-3.6c40.6-42.54,83.12-83.12,124.38-125a152.28,152.28,0,0,0,21.26-19.34A45.76,45.76,0,0,0,364.7,6a46.71,46.71,0,0,0-56.07,12.25L202.94,123.94A69.82,69.82,0,0,1,196,130.49Z"/></svg>